<svg width="32" height="32" viewBox="0 0 32 32" fill="none" xmlns="http://www.w3.org/2000/svg">
<path fill-rule="evenodd" clip-rule="evenodd" d="M1 28C1 27.4477 1.44772 27 2 27H30C30.5523 27 31 27.4477 31 28C31 28.5523 30.5523 29 30 29H2C1.44772 29 1 28.5523 1 28Z" fill="#7650E0"/>
<path fill-rule="evenodd" clip-rule="evenodd" d="M3.58579 4.58579C3.96086 4.21071 4.46957 4 5 4H17C17.5304 4 18.0391 4.21071 18.4142 4.58579C18.7893 4.96086 19 5.46957 19 6V28C19 28.5523 18.5523 29 18 29C17.4477 29 17 28.5523 17 28V6H5V28C5 28.5523 4.55228 29 4 29C3.44772 29 3 28.5523 3 28V6C3 5.46957 3.21071 4.96086 3.58579 4.58579Z" fill="#7650E0"/>
<path fill-rule="evenodd" clip-rule="evenodd" d="M17 13C17 12.4477 17.4477 12 18 12H27C27.5304 12 28.0391 12.2107 28.4142 12.5858C28.7893 12.9609 29 13.4696 29 14V28C29 28.5523 28.5523 29 28 29C27.4477 29 27 28.5523 27 28V14H18C17.4477 14 17 13.5523 17 13Z" fill="#7650E0"/>
<path fill-rule="evenodd" clip-rule="evenodd" d="M7 10C7 9.44772 7.44772 9 8 9H12C12.5523 9 13 9.44772 13 10C13 10.5523 12.5523 11 12 11H8C7.44772 11 7 10.5523 7 10Z" fill="#7650E0"/>
<path fill-rule="evenodd" clip-rule="evenodd" d="M9 18C9 17.4477 9.44772 17 10 17H14C14.5523 17 15 17.4477 15 18C15 18.5523 14.5523 19 14 19H10C9.44772 19 9 18.5523 9 18Z" fill="#7650E0"/>
<path fill-rule="evenodd" clip-rule="evenodd" d="M7 23C7 22.4477 7.44772 22 8 22H12C12.5523 22 13 22.4477 13 23C13 23.5523 12.5523 24 12 24H8C7.44772 24 7 23.5523 7 23Z" fill="#7650E0"/>
<path fill-rule="evenodd" clip-rule="evenodd" d="M21 23C21 22.4477 21.4477 22 22 22H24C24.5523 22 25 22.4477 25 23C25 23.5523 24.5523 24 24 24H22C21.4477 24 21 23.5523 21 23Z" fill="#7650E0"/>
<path fill-rule="evenodd" clip-rule="evenodd" d="M21 18C21 17.4477 21.4477 17 22 17H24C24.5523 17 25 17.4477 25 18C25 18.5523 24.5523 19 24 19H22C21.4477 19 21 18.5523 21 18Z" fill="#7650E0"/>
</svg>
