<svg width="32" height="32" viewBox="0 0 32 32" fill="none" xmlns="http://www.w3.org/2000/svg">
<path fill-rule="evenodd" clip-rule="evenodd" d="M6.65087 4.42871C7.06762 4.01196 7.63285 3.77783 8.22222 3.77783H19.3333C19.628 3.77783 19.9106 3.8949 20.119 4.10327L25.6746 9.65882C25.8829 9.8672 26 10.1498 26 10.4445V26.0001C26 26.5894 25.7659 27.1547 25.3491 27.5714C24.9324 27.9882 24.3671 28.2223 23.7778 28.2223H8.22222C7.63285 28.2223 7.06762 27.9882 6.65087 27.5714C6.23413 27.1547 6 26.5894 6 26.0001V6.00005C6 5.41068 6.23413 4.84545 6.65087 4.42871ZM18.8731 6.00005L8.22222 6.00005L8.22222 26.0001H23.7778V10.9047L18.8731 6.00005Z" fill="#7650E0"/>
<path fill-rule="evenodd" clip-rule="evenodd" d="M11.0065 16.0001C11.0065 15.3864 11.504 14.8889 12.1176 14.8889H18.7843C19.3979 14.8889 19.8954 15.3864 19.8954 16.0001C19.8954 16.6137 19.3979 17.1112 18.7843 17.1112H12.1176C11.504 17.1112 11.0065 16.6137 11.0065 16.0001Z" fill="#7650E0"/>
<path fill-rule="evenodd" clip-rule="evenodd" d="M11.0065 11.0494C11.0065 10.4358 11.504 9.93831 12.1176 9.93831H18.7843C19.3979 9.93831 19.8954 10.4358 19.8954 11.0494C19.8954 11.6631 19.3979 12.1605 18.7843 12.1605H12.1176C11.504 12.1605 11.0065 11.6631 11.0065 11.0494Z" fill="#7650E0"/>
<path fill-rule="evenodd" clip-rule="evenodd" d="M11.0065 20.4445C11.0065 19.8308 11.504 19.3334 12.1176 19.3334H16.5621C17.1757 19.3334 17.6732 19.8308 17.6732 20.4445C17.6732 21.0581 17.1757 21.5556 16.5621 21.5556H12.1176C11.504 21.5556 11.0065 21.0581 11.0065 20.4445Z" fill="#7650E0"/>
</svg>
