<svg width="33" height="32" viewBox="0 0 33 32" fill="none" xmlns="http://www.w3.org/2000/svg">
<path d="M27.4026 12.9625L17.4026 3.87495C17.0339 3.53765 16.5523 3.35059 16.0526 3.35059C15.5529 3.35059 15.0713 3.53765 14.7026 3.87495L4.70263 12.9625C4.49789 13.1498 4.33437 13.3776 4.22246 13.6316C4.11056 13.8855 4.05272 14.16 4.05263 14.4375V25.95C4.0445 26.4542 4.22252 26.9437 4.55263 27.325C4.73999 27.538 4.9708 27.7085 5.22953 27.8249C5.48826 27.9413 5.76892 28.001 6.05263 28H12.0526C12.3179 28 12.5722 27.8946 12.7597 27.7071C12.9473 27.5195 13.0526 27.2652 13.0526 27V21C13.0526 20.7347 13.158 20.4804 13.3455 20.2928C13.5331 20.1053 13.7874 20 14.0526 20H18.0526C18.3179 20 18.5722 20.1053 18.7597 20.2928C18.9473 20.4804 19.0526 20.7347 19.0526 21V27C19.0526 27.2652 19.158 27.5195 19.3455 27.7071C19.5331 27.8946 19.7874 28 20.0526 28H26.0526C26.3843 28.0029 26.7113 27.9211 27.0026 27.7625C27.3196 27.5898 27.5844 27.3351 27.7691 27.025C27.9538 26.715 28.0518 26.3609 28.0526 26V14.4375C28.0525 14.16 27.9947 13.8855 27.8828 13.6316C27.7709 13.3776 27.6074 13.1498 27.4026 12.9625Z" fill="#0E0E2C"/>
</svg>
