<svg width="33" height="32" viewBox="0 0 33 32" fill="none" xmlns="http://www.w3.org/2000/svg">
<path fill-rule="evenodd" clip-rule="evenodd" d="M27.0526 8.00004H21.9651C21.7245 6.6064 20.9993 5.34256 19.9175 4.43157C18.8357 3.52058 17.4669 3.021 16.0526 3.021C14.6383 3.021 13.2695 3.52058 12.1878 4.43157C11.106 5.34256 10.3808 6.6064 10.1401 8.00004H5.05261C4.52218 8.00004 4.01347 8.21076 3.6384 8.58583C3.26333 8.9609 3.05261 9.46961 3.05261 10V13H29.0526V10C29.0526 9.46961 28.8419 8.9609 28.4668 8.58583C28.0918 8.21076 27.583 8.00004 27.0526 8.00004ZM3.05261 26V14.5H14.0526V17H18.0526V14.5H29.0526V26C29.0526 26.5305 28.8419 27.0392 28.4668 27.4143C28.0918 27.7893 27.583 28 27.0526 28H5.05261C4.52218 28 4.01347 27.7893 3.6384 27.4143C3.26333 27.0392 3.05261 26.5305 3.05261 26ZM16.0526 5.00004C16.9392 5.00174 17.8003 5.29701 18.5013 5.83976C19.2023 6.3825 19.7039 7.14215 19.9276 8.00004H12.1776C12.4013 7.14215 12.9029 6.3825 13.6039 5.83976C14.305 5.29701 15.166 5.00174 16.0526 5.00004Z" fill="#0E0E2C"/>
</svg>
