<svg width="33" height="32" viewBox="0 0 33 32" fill="none" xmlns="http://www.w3.org/2000/svg">
<path d="M27.7651 16.7125L22.5151 21.9625C22.3232 22.146 22.0682 22.2489 21.8026 22.25C21.6739 22.2503 21.5463 22.2248 21.4276 22.175C21.2433 22.1004 21.0854 21.9726 20.974 21.8078C20.8627 21.6431 20.803 21.4489 20.8026 21.25V17H13.0526C12.7874 17 12.533 16.8946 12.3455 16.7071C12.158 16.5196 12.0526 16.2652 12.0526 16C12.0526 15.7348 12.158 15.4804 12.3455 15.2929C12.533 15.1054 12.7874 15 13.0526 15H20.8026V10.75C20.803 10.5511 20.8627 10.3569 20.974 10.1922C21.0854 10.0274 21.2433 9.89957 21.4276 9.825C21.6102 9.75248 21.8098 9.73396 22.0026 9.77163C22.1954 9.80931 22.3733 9.90159 22.5151 10.0375L27.7651 15.2875C27.9529 15.4771 28.0582 15.7332 28.0582 16C28.0582 16.2668 27.9529 16.5229 27.7651 16.7125ZM13.0526 26H6.05261V6H13.0526C13.3178 6 13.5722 5.89464 13.7597 5.70711C13.9473 5.51957 14.0526 5.26522 14.0526 5C14.0526 4.73478 13.9473 4.48043 13.7597 4.29289C13.5722 4.10536 13.3178 4 13.0526 4H6.05261C5.52218 4 5.01347 4.21071 4.6384 4.58579C4.26333 4.96086 4.05261 5.46957 4.05261 6V26C4.05261 26.5304 4.26333 27.0391 4.6384 27.4142C5.01347 27.7893 5.52218 28 6.05261 28H13.0526C13.3178 28 13.5722 27.8946 13.7597 27.7071C13.9473 27.5196 14.0526 27.2652 14.0526 27C14.0526 26.7348 13.9473 26.4804 13.7597 26.2929C13.5722 26.1054 13.3178 26 13.0526 26Z" fill="#0E0E2C"/>
</svg>
