<svg width="32" height="33" viewBox="0 0 32 33" fill="none" xmlns="http://www.w3.org/2000/svg">
<path d="M27 6.96814H4.99998C4.46955 6.96814 3.96084 7.17885 3.58577 7.55393C3.2107 7.929 2.99998 8.43771 2.99998 8.96814V28.8181C2.996 29.2007 3.10392 29.576 3.31046 29.8981C3.51699 30.2201 3.81314 30.4747 4.16248 30.6306C4.42187 30.7627 4.70892 30.8312 4.99998 30.8306C5.47174 30.8291 5.92777 30.6609 6.28748 30.3556L10.2625 27.0181L27 26.9681C27.5304 26.9681 28.0391 26.7574 28.4142 26.3824C28.7893 26.0073 29 25.4986 29 24.9681V8.96814C29 8.43771 28.7893 7.929 28.4142 7.55393C28.0391 7.17885 27.5304 6.96814 27 6.96814ZM9.99998 18.4681C9.70331 18.4681 9.4133 18.3802 9.16663 18.2153C8.91996 18.0505 8.7277 17.8163 8.61416 17.5422C8.50063 17.2681 8.47093 16.9665 8.52881 16.6755C8.58668 16.3845 8.72955 16.1173 8.93932 15.9075C9.1491 15.6977 9.41638 15.5548 9.70735 15.497C9.99832 15.4391 10.2999 15.4688 10.574 15.5823C10.8481 15.6959 11.0824 15.8881 11.2472 16.1348C11.412 16.3815 11.5 16.6715 11.5 16.9681C11.5 17.366 11.3419 17.7475 11.0606 18.0288C10.7793 18.3101 10.3978 18.4681 9.99998 18.4681ZM16 18.4681C15.7033 18.4681 15.4133 18.3802 15.1666 18.2153C14.92 18.0505 14.7277 17.8163 14.6142 17.5422C14.5006 17.2681 14.4709 16.9665 14.5288 16.6755C14.5867 16.3845 14.7295 16.1173 14.9393 15.9075C15.1491 15.6977 15.4164 15.5548 15.7073 15.497C15.9983 15.4391 16.2999 15.4688 16.574 15.5823C16.8481 15.6959 17.0824 15.8881 17.2472 16.1348C17.412 16.3815 17.5 16.6715 17.5 16.9681C17.5 17.366 17.3419 17.7475 17.0606 18.0288C16.7793 18.3101 16.3978 18.4681 16 18.4681ZM22 18.4681C21.7033 18.4681 21.4133 18.3802 21.1666 18.2153C20.92 18.0505 20.7277 17.8163 20.6142 17.5422C20.5006 17.2681 20.4709 16.9665 20.5288 16.6755C20.5867 16.3845 20.7295 16.1173 20.9393 15.9075C21.1491 15.6977 21.4164 15.5548 21.7073 15.497C21.9983 15.4391 22.2999 15.4688 22.574 15.5823C22.8481 15.6959 23.0824 15.8881 23.2472 16.1348C23.412 16.3815 23.5 16.6715 23.5 16.9681C23.5 17.366 23.3419 17.7475 23.0606 18.0288C22.7793 18.3101 22.3978 18.4681 22 18.4681Z" fill="#0E0E2C"/>
</svg>
