<svg width="32" height="32" viewBox="0 0 32 32" fill="none" xmlns="http://www.w3.org/2000/svg">
<path fill-rule="evenodd" clip-rule="evenodd" d="M17.5 5.5C17.5 3.29086 19.2909 1.5 21.5 1.5C23.7092 1.5 25.5 3.29086 25.5 5.5C25.5 7.70914 23.7092 9.5 21.5 9.5C19.2909 9.5 17.5 7.70914 17.5 5.5Z" fill="#FC573B"/>
<path fill-rule="evenodd" clip-rule="evenodd" d="M12.9841 5.59623C13.71 5.29876 14.4745 5.11044 15.2526 5.03608C15.7205 4.99136 16.1295 4.6724 16.2312 4.21356C16.3692 3.59062 15.8903 2.9975 15.2546 3.05146C7.89143 3.67638 6.01711 9.8384 6.02502 13.0007V14C6.02502 18.3333 5.11821 20.7534 4.39709 21.999L4.3965 22C4.22126 22.3035 4.12885 22.6477 4.12854 22.9982C4.12823 23.3487 4.22003 23.6931 4.39473 23.9969C4.56943 24.3008 4.82091 24.5534 5.12397 24.7294C5.42703 24.9054 5.77103 24.9987 6.12149 25L6.12502 25L11 25C11 26.3261 11.5268 27.5979 12.4645 28.5355C13.4022 29.4732 14.6739 30 16 30C17.3261 30 18.5979 29.4732 19.5355 28.5355C20.4732 27.5979 21 26.3261 21 25L25.875 25L25.8785 25C26.229 24.9987 26.573 24.9054 26.8761 24.7294C27.1791 24.5534 27.4306 24.3008 27.6053 23.9969C27.78 23.6931 27.8718 23.3487 27.8715 22.9982C27.8712 22.6477 27.7788 22.3035 27.6035 22L27.6029 21.9989C26.8818 20.7534 25.975 18.3333 25.975 14V13.1125C25.975 12.5602 25.5273 12.1125 24.975 12.1125C24.4227 12.1125 23.975 12.5602 23.975 13.1125V14C23.975 18.6156 24.9428 21.3954 25.8715 23H6.12854C7.05724 21.3954 8.02502 18.6157 8.02502 14L8.02502 13L8.02502 12.9986C8.02354 11.945 8.23052 10.9015 8.63405 9.92818C9.03758 8.9549 9.62968 8.07107 10.3763 7.3276C11.1228 6.58413 12.0091 5.99571 12.9841 5.59623ZM13 25C13 25.7956 13.3161 26.5587 13.8787 27.1213C14.4413 27.6839 15.2044 28 16 28C16.7957 28 17.5587 27.6839 18.1213 27.1213C18.6839 26.5587 19 25.7956 19 25H13Z" fill="#0E0E2C"/>
</svg>
