<svg width="32" height="32" viewBox="0 0 32 32" fill="none" xmlns="http://www.w3.org/2000/svg">
<path fill-rule="evenodd" clip-rule="evenodd" d="M5.04726 13.0252L4.88887 12.9407C4.94441 12.9642 4.99738 12.9925 5.04726 13.0252ZM27.1111 12.9407L26.9527 13.0252C27.0026 12.9925 27.0556 12.9642 27.1111 12.9407Z" fill="#505053"/>
<path fill-rule="evenodd" clip-rule="evenodd" d="M16.4706 3.11765C16.1765 2.96078 15.8235 2.96078 15.5294 3.11765L0.529412 11.1176C0.203548 11.2914 0 11.6307 0 12C0 12.3693 0.203548 12.7086 0.529412 12.8824L3.5 14.4667L5.5 15.5333L15.5294 20.8824C15.8235 21.0392 16.1765 21.0392 16.4706 20.8824L22.5 17.6667V23.9754C20.8601 24.8287 18.7089 25.4998 16 25.4998C9.53199 25.4998 6.2438 21.6738 5.50219 20.6776L5.5 20.6747V15.5333L3.5 14.4667L3.49999 20.6873L3.50001 20.6915C3.50182 21.1195 3.64257 21.5352 3.90098 21.8761C4.8397 23.1354 8.65116 27.4998 16 27.4998C18.5995 27.4998 20.7563 26.9537 22.5 26.1922V30C22.5 30.5523 22.9477 31 23.5 31C24.0523 31 24.5 30.5523 24.5 30V25.1308C26.4607 23.8897 27.6333 22.5009 28.099 21.8761C28.3574 21.5352 28.4982 21.1195 28.5 20.6915L28.5 20.6873V14.4667L26.5 15.5333V20.6748L26.4979 20.6777C26.2148 21.0579 25.5605 21.8506 24.5 22.6854V16.6L26.5 15.5333L28.5 14.4667L31.4706 12.8824C31.7965 12.7086 32 12.3693 32 12C32 11.6307 31.7965 11.2914 31.4706 11.1176L16.4706 3.11765ZM16 5.13333L28.875 12L27.1111 12.9407L26.9527 13.0252L23.5 14.8667L16.4706 11.1176C15.9833 10.8577 15.3775 11.0421 15.1176 11.5294C14.8577 12.0167 15.0421 12.6225 15.5294 12.8824L21.375 16L16 18.8667L5.04726 13.0252L4.88887 12.9407L3.125 12L16 5.13333Z" fill="#7650E0"/>
</svg>
